<svg xmlns="http://www.w3.org/2000/svg" viewBox="0 0 47.66 47.66"><defs><style>.cls-1{fill:#fff;}</style></defs><g id="Layer_2" data-name="Layer 2"><g id="ELEMENTS"><circle cx="23.83" cy="23.83" r="23.83"/><path class="cls-1" d="M10.17,23.27s11.92-4.89,16.06-6.62c1.58-.69,7-2.89,7-2.89s2.48-1,2.27,1.38c-.07,1-.62,4.34-1.17,8C33.46,28.3,32.57,34,32.57,34s-.14,1.59-1.31,1.86-3.1-1-3.45-1.24-5.17-3.31-7-4.82a1.31,1.31,0,0,1,.07-2.21c2.48-2.27,5.44-5.1,7.24-6.89.82-.83,1.65-2.76-1.8-.41-4.89,3.37-9.71,6.54-9.71,6.54a4,4,0,0,1-3.17.07C11.41,26.23,9,25.4,9,25.4s-1.66-1,1.17-2.13Z"/></g></g></svg>