<svg xmlns="http://www.w3.org/2000/svg" viewBox="0 0 47.66 47.66"><defs><style>.cls-1{fill:#fff;}</style></defs><g id="Layer_2" data-name="Layer 2"><g id="ELEMENTS"><circle cx="23.83" cy="23.83" r="23.83"/><path class="cls-1" d="M34.28,14.28a24.68,24.68,0,0,0-6.21-1.91,14.49,14.49,0,0,0-.8,1.63,23.33,23.33,0,0,0-6.88,0,15.45,15.45,0,0,0-.81-1.63,24.64,24.64,0,0,0-6.22,1.92A25.37,25.37,0,0,0,8.91,31.45a25.1,25.1,0,0,0,7.62,3.85,20.05,20.05,0,0,0,1.63-2.65,16.38,16.38,0,0,1-2.57-1.23c.22-.16.42-.32.62-.49a17.83,17.83,0,0,0,15.24,0,7.57,7.57,0,0,0,.63.49,16.11,16.11,0,0,1-2.58,1.24,19,19,0,0,0,1.64,2.64,24.5,24.5,0,0,0,7.61-3.85A25.38,25.38,0,0,0,34.28,14.28ZM18.83,28a2.88,2.88,0,0,1-2.7-3,2.88,2.88,0,0,1,2.7-3,2.87,2.87,0,0,1,2.71,3A2.89,2.89,0,0,1,18.83,28Zm10,0a2.89,2.89,0,0,1-2.71-3,2.89,2.89,0,0,1,2.71-3,2.86,2.86,0,0,1,2.7,3A2.88,2.88,0,0,1,28.83,28Z"/></g></g></svg>