<svg width="42" height="42" viewBox="0 0 42 42" fill="none" xmlns="http://www.w3.org/2000/svg">
<g filter="url(#filter0_dd_621_420)">
<g clip-path="url(#clip0_621_420)">
<path d="M21 25.3333C25.6024 25.3333 29.3333 21.6024 29.3333 17C29.3333 12.3976 25.6024 8.66666 21 8.66666C16.3976 8.66666 12.6667 12.3976 12.6667 17C12.6667 21.6024 16.3976 25.3333 21 25.3333Z" stroke="#E8E8E8" stroke-width="1.4" stroke-linecap="round" stroke-linejoin="round"/>
<path d="M12.6667 17H29.3333" stroke="#E8E8E8" stroke-width="1.4" stroke-linecap="round" stroke-linejoin="round"/>
<path d="M21 8.66666C23.0844 10.9486 24.269 13.91 24.3333 17C24.269 20.09 23.0844 23.0514 21 25.3333C18.9156 23.0514 17.731 20.09 17.6667 17C17.731 13.91 18.9156 10.9486 21 8.66666V8.66666Z" stroke="#E8E8E8" stroke-width="1.4" stroke-linecap="round" stroke-linejoin="round"/>
</g>
</g>
<defs>
<filter id="filter0_dd_621_420" x="-4" y="-4" width="50" height="50" filterUnits="userSpaceOnUse" color-interpolation-filters="sRGB">
<feFlood flood-opacity="0" result="BackgroundImageFix"/>
<feColorMatrix in="SourceAlpha" type="matrix" values="0 0 0 0 0 0 0 0 0 0 0 0 0 0 0 0 0 0 127 0" result="hardAlpha"/>
<feOffset dy="1"/>
<feGaussianBlur stdDeviation="1.5"/>
<feColorMatrix type="matrix" values="0 0 0 0 0 0 0 0 0 0 0 0 0 0 0 0 0 0 0.3 0"/>
<feBlend mode="normal" in2="BackgroundImageFix" result="effect1_dropShadow_621_420"/>
<feColorMatrix in="SourceAlpha" type="matrix" values="0 0 0 0 0 0 0 0 0 0 0 0 0 0 0 0 0 0 127 0" result="hardAlpha"/>
<feMorphology radius="3" operator="dilate" in="SourceAlpha" result="effect2_dropShadow_621_420"/>
<feOffset dy="4"/>
<feGaussianBlur stdDeviation="4"/>
<feColorMatrix type="matrix" values="0 0 0 0 0 0 0 0 0 0 0 0 0 0 0 0 0 0 0.15 0"/>
<feBlend mode="normal" in2="effect1_dropShadow_621_420" result="effect2_dropShadow_621_420"/>
<feBlend mode="normal" in="SourceGraphic" in2="effect2_dropShadow_621_420" result="shape"/>
</filter>
<clipPath id="clip0_621_420">
<rect width="20" height="20" fill="white" transform="translate(11 7)"/>
</clipPath>
</defs>
</svg>
