<svg width="42" height="42" viewBox="0 0 42 42" fill="none" xmlns="http://www.w3.org/2000/svg">
<g filter="url(#filter0_dd_621_428)">
<path d="M27.9308 10.463C26.6561 9.87809 25.2892 9.44716 23.8599 9.20035C23.8339 9.19558 23.8079 9.20749 23.7945 9.23129C23.6187 9.54397 23.4239 9.95189 23.2876 10.2725C21.7503 10.0424 20.221 10.0424 18.7153 10.2725C18.5789 9.94476 18.3771 9.54397 18.2005 9.23129C18.1871 9.20828 18.1611 9.19638 18.135 9.20035C16.7066 9.44637 15.3396 9.8773 14.0641 10.463C14.0531 10.4677 14.0436 10.4757 14.0373 10.486C11.4445 14.3596 10.7342 18.1381 11.0827 21.8696C11.0842 21.8879 11.0945 21.9054 11.1087 21.9165C12.8193 23.1727 14.4764 23.9354 16.1027 24.4409C16.1288 24.4489 16.1563 24.4394 16.1729 24.4179C16.5576 23.8926 16.9005 23.3386 17.1946 22.7561C17.2119 22.722 17.1954 22.6815 17.1599 22.668C16.6159 22.4617 16.098 22.2101 15.5998 21.9244C15.5604 21.9014 15.5572 21.845 15.5935 21.818C15.6983 21.7395 15.8032 21.6577 15.9033 21.5752C15.9214 21.5601 15.9466 21.5569 15.9679 21.5665C19.2411 23.0608 22.7846 23.0608 26.0191 21.5665C26.0404 21.5561 26.0657 21.5593 26.0846 21.5744C26.1847 21.6569 26.2895 21.7395 26.3952 21.818C26.4314 21.845 26.4291 21.9014 26.3897 21.9244C25.8914 22.2156 25.3735 22.4617 24.8288 22.6672C24.7933 22.6807 24.7775 22.722 24.7949 22.7561C25.0952 23.3378 25.4381 23.8917 25.8157 24.4171C25.8315 24.4394 25.8599 24.4489 25.8859 24.4409C27.5201 23.9354 29.1772 23.1727 30.8879 21.9165C30.9028 21.9054 30.9123 21.8887 30.9139 21.8704C31.3309 17.5563 30.2154 13.8089 27.9568 10.4868C27.9513 10.4757 27.9419 10.4677 27.9308 10.463ZM17.6834 19.5975C16.6979 19.5975 15.8859 18.6928 15.8859 17.5817C15.8859 16.4706 16.6822 15.5659 17.6834 15.5659C18.6924 15.5659 19.4965 16.4786 19.4807 17.5817C19.4807 18.6928 18.6845 19.5975 17.6834 19.5975ZM24.329 19.5975C23.3435 19.5975 22.5316 18.6928 22.5316 17.5817C22.5316 16.4706 23.3278 15.5659 24.329 15.5659C25.338 15.5659 26.1421 16.4786 26.1264 17.5817C26.1264 18.6928 25.338 19.5975 24.329 19.5975Z" fill="#E8E8E8"/>
</g>
<defs>
<filter id="filter0_dd_621_428" x="-4" y="-4" width="50" height="50" filterUnits="userSpaceOnUse" color-interpolation-filters="sRGB">
<feFlood flood-opacity="0" result="BackgroundImageFix"/>
<feColorMatrix in="SourceAlpha" type="matrix" values="0 0 0 0 0 0 0 0 0 0 0 0 0 0 0 0 0 0 127 0" result="hardAlpha"/>
<feOffset dy="1"/>
<feGaussianBlur stdDeviation="1.5"/>
<feColorMatrix type="matrix" values="0 0 0 0 0 0 0 0 0 0 0 0 0 0 0 0 0 0 0.3 0"/>
<feBlend mode="normal" in2="BackgroundImageFix" result="effect1_dropShadow_621_428"/>
<feColorMatrix in="SourceAlpha" type="matrix" values="0 0 0 0 0 0 0 0 0 0 0 0 0 0 0 0 0 0 127 0" result="hardAlpha"/>
<feMorphology radius="3" operator="dilate" in="SourceAlpha" result="effect2_dropShadow_621_428"/>
<feOffset dy="4"/>
<feGaussianBlur stdDeviation="4"/>
<feColorMatrix type="matrix" values="0 0 0 0 0 0 0 0 0 0 0 0 0 0 0 0 0 0 0.15 0"/>
<feBlend mode="normal" in2="effect1_dropShadow_621_428" result="effect2_dropShadow_621_428"/>
<feBlend mode="normal" in="SourceGraphic" in2="effect2_dropShadow_621_428" result="shape"/>
</filter>
</defs>
</svg>
