<svg width="42" height="42" viewBox="0 0 42 42" fill="none" xmlns="http://www.w3.org/2000/svg">
    <g filter="url(#filter0_dd_934_1955)">
        <g clip-path="url(#clip0_934_1955)">
            <path
                d="M21.0003 25.3333C25.6027 25.3333 29.3337 21.6024 29.3337 17C29.3337 12.3976 25.6027 8.66667 21.0003 8.66667C16.398 8.66667 12.667 12.3976 12.667 17C12.667 21.6024 16.398 25.3333 21.0003 25.3333Z"
                stroke="#E8E8E8" stroke-width="1.4" stroke-linecap="round" stroke-linejoin="round" />
            <path d="M12.667 17H29.3337" stroke="#E8E8E8" stroke-width="1.4" stroke-linecap="round"
                stroke-linejoin="round" />
            <path
                d="M21.0003 8.66667C23.0847 10.9486 24.2693 13.91 24.3337 17C24.2693 20.09 23.0847 23.0514 21.0003 25.3333C18.9159 23.0514 17.7314 20.09 17.667 17C17.7314 13.91 18.9159 10.9486 21.0003 8.66667V8.66667Z"
                stroke="#E8E8E8" stroke-width="1.4" stroke-linecap="round" stroke-linejoin="round" />
        </g>
    </g>
    <defs>
        <filter id="filter0_dd_934_1955" x="-4" y="-4" width="50" height="50"
            filterUnits="userSpaceOnUse" color-interpolation-filters="sRGB">
            <feFlood flood-opacity="0" result="BackgroundImageFix" />
            <feColorMatrix in="SourceAlpha" type="matrix"
                values="0 0 0 0 0 0 0 0 0 0 0 0 0 0 0 0 0 0 127 0" result="hardAlpha" />
            <feOffset dy="1" />
            <feGaussianBlur stdDeviation="1.5" />
            <feColorMatrix type="matrix" values="0 0 0 0 0 0 0 0 0 0 0 0 0 0 0 0 0 0 0.3 0" />
            <feBlend mode="normal" in2="BackgroundImageFix" result="effect1_dropShadow_934_1955" />
            <feColorMatrix in="SourceAlpha" type="matrix"
                values="0 0 0 0 0 0 0 0 0 0 0 0 0 0 0 0 0 0 127 0" result="hardAlpha" />
            <feMorphology radius="3" operator="dilate" in="SourceAlpha"
                result="effect2_dropShadow_934_1955" />
            <feOffset dy="4" />
            <feGaussianBlur stdDeviation="4" />
            <feColorMatrix type="matrix" values="0 0 0 0 0 0 0 0 0 0 0 0 0 0 0 0 0 0 0.15 0" />
            <feBlend mode="normal" in2="effect1_dropShadow_934_1955"
                result="effect2_dropShadow_934_1955" />
            <feBlend mode="normal" in="SourceGraphic" in2="effect2_dropShadow_934_1955"
                result="shape" />
        </filter>
        <clipPath id="clip0_934_1955">
            <rect width="20" height="20" fill="white" transform="translate(11 7)" />
        </clipPath>
    </defs>
</svg>
    