<svg width="42" height="42" viewBox="0 0 42 42" fill="none" xmlns="http://www.w3.org/2000/svg">
<g filter="url(#filter0_dd_621_431)">
<g clip-path="url(#clip0_621_431)">
<path fill-rule="evenodd" clip-rule="evenodd" d="M31 17C31 22.5228 26.5228 27 21 27C15.4772 27 11 22.5228 11 17C11 11.4772 15.4772 7 21 7C26.5228 7 31 11.4772 31 17ZM21.3584 14.3824C20.3857 14.787 18.4418 15.6243 15.5266 16.8944C15.0532 17.0827 14.8052 17.2668 14.7826 17.4469C14.7445 17.7512 15.1256 17.8711 15.6446 18.0343C15.7152 18.0565 15.7883 18.0795 15.8633 18.1038C16.3739 18.2698 17.0607 18.464 17.4177 18.4717C17.7416 18.4787 18.1031 18.3452 18.5022 18.0711C21.226 16.2325 22.632 15.3032 22.7203 15.2831C22.7825 15.269 22.8688 15.2512 22.9273 15.3032C22.9858 15.3552 22.98 15.4536 22.9738 15.48C22.9361 15.6409 21.4401 17.0317 20.6659 17.7515C20.4246 17.9759 20.2534 18.135 20.2184 18.1714C20.14 18.2528 20.0601 18.3298 19.9833 18.4038C19.509 18.8611 19.1533 19.204 20.003 19.764C20.4114 20.0331 20.7381 20.2556 21.0641 20.4776C21.4201 20.7201 21.7752 20.9619 22.2347 21.2631C22.3517 21.3398 22.4635 21.4195 22.5724 21.4971C22.9867 21.7925 23.359 22.0578 23.8188 22.0155C24.086 21.9909 24.3621 21.7397 24.5022 20.9903C24.8335 19.2193 25.4847 15.382 25.6352 13.8008C25.6484 13.6623 25.6318 13.485 25.6185 13.4071C25.6051 13.3293 25.5773 13.2184 25.4761 13.1363C25.3563 13.0391 25.1714 13.0186 25.0886 13.0201C24.7125 13.0267 24.1355 13.2273 21.3584 14.3824Z" fill="#E8E8E8"/>
</g>
</g>
<defs>
<filter id="filter0_dd_621_431" x="-4" y="-4" width="50" height="50" filterUnits="userSpaceOnUse" color-interpolation-filters="sRGB">
<feFlood flood-opacity="0" result="BackgroundImageFix"/>
<feColorMatrix in="SourceAlpha" type="matrix" values="0 0 0 0 0 0 0 0 0 0 0 0 0 0 0 0 0 0 127 0" result="hardAlpha"/>
<feOffset dy="1"/>
<feGaussianBlur stdDeviation="1.5"/>
<feColorMatrix type="matrix" values="0 0 0 0 0 0 0 0 0 0 0 0 0 0 0 0 0 0 0.3 0"/>
<feBlend mode="normal" in2="BackgroundImageFix" result="effect1_dropShadow_621_431"/>
<feColorMatrix in="SourceAlpha" type="matrix" values="0 0 0 0 0 0 0 0 0 0 0 0 0 0 0 0 0 0 127 0" result="hardAlpha"/>
<feMorphology radius="3" operator="dilate" in="SourceAlpha" result="effect2_dropShadow_621_431"/>
<feOffset dy="4"/>
<feGaussianBlur stdDeviation="4"/>
<feColorMatrix type="matrix" values="0 0 0 0 0 0 0 0 0 0 0 0 0 0 0 0 0 0 0.15 0"/>
<feBlend mode="normal" in2="effect1_dropShadow_621_431" result="effect2_dropShadow_621_431"/>
<feBlend mode="normal" in="SourceGraphic" in2="effect2_dropShadow_621_431" result="shape"/>
</filter>
<clipPath id="clip0_621_431">
<rect width="20" height="20" fill="white" transform="translate(11 7)"/>
</clipPath>
</defs>
</svg>
